<svg width="21" height="20" viewBox="0 0 21 20" fill="none" xmlns="http://www.w3.org/2000/svg">
<path d="M9.47371 0.918174C9.77356 -0.00210297 11.0755 -0.00210214 11.3753 0.918175L13.1264 6.29257C13.2605 6.7042 13.6443 6.98278 14.0772 6.98278H19.738C20.7074 6.98278 21.1097 8.22381 20.3247 8.79257L15.7498 12.1072C15.3984 12.3619 15.2513 12.8141 15.3857 13.2268L17.1343 18.5934C17.4343 19.5143 16.381 20.2812 15.5968 19.713L11.0112 16.3907C10.6612 16.137 10.1878 16.137 9.8378 16.3907L5.25225 19.713C4.46799 20.2812 3.4147 19.5143 3.71472 18.5934L5.4633 13.2268C5.59775 12.8141 5.45067 12.3619 5.09921 12.1072L0.524337 8.79257C-0.26067 8.22381 0.141661 6.98278 1.11106 6.98278H6.77181C7.20474 6.98278 7.5885 6.7042 7.72262 6.29257L9.47371 0.918174Z" fill="#E5E5E5"/>
</svg>
